<mxfile host="app.diagrams.net" modified="2023-02-09T08:38:45.486Z" agent="5.0 (Windows NT 10.0; Win64; x64) AppleWebKit/537.36 (KHTML, like Gecko) Chrome/109.0.0.0 Safari/537.36" etag="3vhc35WvY_eWTvHmTwz0" version="20.8.18" type="github">
  <diagram name="Page-1" id="OcKVnmv9bkzOkqvMLp8E">
    <mxGraphModel dx="1221" dy="654" grid="1" gridSize="10" guides="1" tooltips="1" connect="1" arrows="1" fold="1" page="1" pageScale="1" pageWidth="850" pageHeight="1100" math="0" shadow="0">
      <root>
        <mxCell id="0" />
        <mxCell id="1" parent="0" />
        <mxCell id="kHYbqAMakebXmbpQwH_0-1" value="OnActivateAsync" style="rounded=0;whiteSpace=wrap;html=1;" vertex="1" parent="1">
          <mxGeometry x="70" y="250" width="120" height="60" as="geometry" />
        </mxCell>
        <mxCell id="kHYbqAMakebXmbpQwH_0-2" value="ConfigPipeline" style="rounded=0;whiteSpace=wrap;html=1;" vertex="1" parent="1">
          <mxGeometry x="240" y="250" width="120" height="60" as="geometry" />
        </mxCell>
        <mxCell id="kHYbqAMakebXmbpQwH_0-3" value="GetComputationInstance" style="rounded=0;whiteSpace=wrap;html=1;" vertex="1" parent="1">
          <mxGeometry x="400" y="250" width="170" height="60" as="geometry" />
        </mxCell>
        <mxCell id="kHYbqAMakebXmbpQwH_0-4" value="" style="shape=singleArrow;whiteSpace=wrap;html=1;" vertex="1" parent="1">
          <mxGeometry x="200" y="250" width="30" height="60" as="geometry" />
        </mxCell>
        <mxCell id="kHYbqAMakebXmbpQwH_0-5" value="" style="shape=singleArrow;whiteSpace=wrap;html=1;" vertex="1" parent="1">
          <mxGeometry x="364" y="250" width="30" height="60" as="geometry" />
        </mxCell>
      </root>
    </mxGraphModel>
  </diagram>
</mxfile>
